<?xml version="1.0" encoding="utf-8"?>
<!-- Generator: Adobe Illustrator 26.0.3, SVG Export Plug-In . SVG Version: 6.00 Build 0)  -->
<svg version="1.1" id="Layer_1" xmlns="http://www.w3.org/2000/svg" xmlns:xlink="http://www.w3.org/1999/xlink" x="0px" y="0px"
	 viewBox="0 0 13.87 14.64" style="enable-background:new 0 0 13.87 14.64;" xml:space="preserve">
<style type="text/css">
	.st0{fill:url(#SVGID_1_);}
	.st1{fill:url(#SVGID_00000140731068114506223980000003293919197698280599_);}
	.st2{fill:#F5FDFF;}
	.st3{fill:#2CBFE8;}
</style>
<g>
	<linearGradient id="SVGID_1_" gradientUnits="userSpaceOnUse" x1="6.7706" y1="1.2351" x2="6.7706" y2="7.8116">
		<stop  offset="0" style="stop-color:#010305"/>
		<stop  offset="0.9888" style="stop-color:#31D6FF"/>
	</linearGradient>
	<path class="st0" d="M12.32,5.44v1.81c-0.64,0.45-1.51,0.6-2.51,0.56V7.35c0-0.09-0.08-0.17-0.17-0.17H6.51
		C6.41,7.14,6.31,7.1,6.21,7.06C6,6.97,5.74,6.87,5.45,6.78h4.19c0.09,0,0.17-0.08,0.17-0.17V5.57c0-0.09-0.08-0.17-0.17-0.17H4.09
		C4,5.4,3.92,5.47,3.92,5.57v0.99c-0.57,0-1.19,0.1-1.81,0.38C1.77,7.09,1.48,7.27,1.22,7.47V5.44c0-0.83,0.44-1.6,1.16-2.02
		L5.6,1.55c0.73-0.42,1.62-0.42,2.35,0l3.21,1.87C11.88,3.84,12.32,4.61,12.32,5.44z M8.96,6.07c0-0.13-0.11-0.24-0.24-0.24
		S8.47,5.94,8.47,6.07s0.11,0.24,0.24,0.24S8.96,6.21,8.96,6.07z"/>
	<circle cx="8.71" cy="7.89" r="0.24"/>
	<circle cx="8.71" cy="9.64" r="0.24"/>
	<path d="M9.81,7.81V8.4c0,0.09-0.08,0.17-0.17,0.17H4.09C4,8.57,3.92,8.49,3.92,8.4V7.35c0-0.09,0.08-0.17,0.17-0.17h2.42
		C6.41,7.14,6.31,7.1,6.21,7.06C6,6.97,5.74,6.87,5.45,6.78H4.09C4,6.78,3.92,6.71,3.92,6.61V6.56c-0.57,0-1.19,0.1-1.81,0.38
		C1.77,7.09,1.48,7.27,1.22,7.47v1.74c0,0.83,0.44,1.6,1.16,2.02L5.6,13.1c0.31,0.18,0.65,0.28,0.99,0.31v-3.07H4.09
		c-0.09,0-0.17-0.08-0.17-0.17V9.11c0-0.09,0.08-0.17,0.17-0.17h5.55c0.09,0,0.17,0.08,0.17,0.17v1.05c0,0.09-0.08,0.17-0.17,0.17
		H6.96v3.07c0.34-0.03,0.68-0.13,0.99-0.31l3.21-1.87c0.72-0.42,1.16-1.19,1.16-2.02V7.24C11.68,7.7,10.81,7.84,9.81,7.81z"/>
</g>
</svg>
