<?xml version="1.0" encoding="utf-8"?>
<!-- Generator: Adobe Illustrator 26.0.3, SVG Export Plug-In . SVG Version: 6.00 Build 0)  -->
<svg version="1.1" id="Layer_1" xmlns="http://www.w3.org/2000/svg" xmlns:xlink="http://www.w3.org/1999/xlink" x="0px" y="0px"
	 viewBox="0 0 63.6 14.64" style="enable-background:new 0 0 63.6 14.64;" xml:space="preserve">
<style type="text/css">
	.st0{fill:url(#SVGID_1_);}
	.st1{fill:url(#SVGID_00000174595125210174264940000010232042308412816533_);}
	.st2{fill:#F5FDFF;}
	.st3{fill:#2CBFE8;}
</style>
<g>
	<linearGradient id="SVGID_1_" gradientUnits="userSpaceOnUse" x1="6.7706" y1="1.2351" x2="6.7706" y2="7.8116">
		<stop  offset="0" style="stop-color:#010305"/>
		<stop  offset="0.9888" style="stop-color:#31D6FF"/>
	</linearGradient>
	<path class="st0" d="M12.32,5.44v1.81c-0.64,0.45-1.51,0.6-2.51,0.56V7.35c0-0.09-0.08-0.17-0.17-0.17H6.51
		C6.41,7.14,6.31,7.1,6.21,7.06C6,6.97,5.74,6.87,5.45,6.78h4.19c0.09,0,0.17-0.08,0.17-0.17V5.57c0-0.09-0.08-0.17-0.17-0.17H4.09
		C4,5.4,3.92,5.47,3.92,5.57v0.99c-0.57,0-1.19,0.1-1.81,0.38C1.77,7.09,1.48,7.27,1.22,7.47V5.44c0-0.83,0.44-1.6,1.16-2.02
		L5.6,1.55c0.73-0.42,1.62-0.42,2.35,0l3.21,1.87C11.88,3.84,12.32,4.61,12.32,5.44z M8.96,6.07c0-0.13-0.11-0.24-0.24-0.24
		S8.47,5.94,8.47,6.07s0.11,0.24,0.24,0.24S8.96,6.21,8.96,6.07z"/>
	<circle cx="8.71" cy="7.89" r="0.24"/>
	<circle cx="8.71" cy="9.64" r="0.24"/>
	<path d="M9.81,7.81V8.4c0,0.09-0.08,0.17-0.17,0.17H4.09C4,8.57,3.92,8.49,3.92,8.4V7.35c0-0.09,0.08-0.17,0.17-0.17h2.42
		C6.41,7.14,6.31,7.1,6.21,7.06C6,6.97,5.74,6.87,5.45,6.78H4.09C4,6.78,3.92,6.71,3.92,6.61V6.56c-0.57,0-1.19,0.1-1.81,0.38
		C1.77,7.09,1.48,7.27,1.22,7.47v1.74c0,0.83,0.44,1.6,1.16,2.02L5.6,13.1c0.31,0.18,0.65,0.28,0.99,0.31v-3.07H4.09
		c-0.09,0-0.17-0.08-0.17-0.17V9.11c0-0.09,0.08-0.17,0.17-0.17h5.55c0.09,0,0.17,0.08,0.17,0.17v1.05c0,0.09-0.08,0.17-0.17,0.17
		H6.96v3.07c0.34-0.03,0.68-0.13,0.99-0.31l3.21-1.87c0.72-0.42,1.16-1.19,1.16-2.02V7.24C11.68,7.7,10.81,7.84,9.81,7.81z"/>
</g>
<g>
	<path class="st2" d="M24.11,8.54V5.89h0.88v2.86c0,0.64-0.43,1.21-1.05,1.35c-0.27,0.06-0.56,0.1-0.85,0.1
		c-0.65,0-1.12-0.14-1.4-0.43c-0.28-0.28-0.43-0.73-0.43-1.34V5.89h0.88v2.47c0,0.4,0.08,0.68,0.24,0.86
		c0.16,0.18,0.44,0.26,0.82,0.26c0,0,0.01,0,0.01,0C23.71,9.48,24.11,9.05,24.11,8.54z"/>
	<path class="st2" d="M29.15,8.19V7.8c0-0.64,0.17-1.13,0.52-1.48c0.35-0.35,0.85-0.52,1.51-0.52c0.66,0,1.17,0.17,1.51,0.52
		c0.35,0.35,0.52,0.84,0.52,1.48v0.39c0,0.64-0.17,1.13-0.52,1.48c-0.35,0.35-0.85,0.52-1.51,0.52c-0.66,0-1.17-0.17-1.51-0.52
		C29.33,9.32,29.15,8.83,29.15,8.19z M32.35,8.2V7.79c0-0.43-0.1-0.76-0.31-0.97c-0.21-0.21-0.49-0.32-0.86-0.32
		c-0.36,0-0.64,0.11-0.85,0.32c-0.2,0.21-0.31,0.53-0.31,0.96V8.2c0,0.43,0.1,0.76,0.31,0.97c0.21,0.21,0.49,0.32,0.86,0.32
		c0.36,0,0.64-0.11,0.85-0.32C32.24,8.94,32.35,8.62,32.35,8.2z"/>
	<path class="st2" d="M39.29,10.19c-0.66,0-1.13-0.11-1.41-0.35c-0.28-0.23-0.41-0.58-0.41-1.05c0-0.45,0.13-0.78,0.39-1
		c0.26-0.22,0.67-0.33,1.23-0.33c0.48,0,0.91,0.09,1.28,0.26L40.36,7.5c-0.01-0.36-0.1-0.61-0.27-0.76
		c-0.17-0.15-0.46-0.23-0.87-0.23c-0.5,0-0.95,0.14-1.36,0.41V6.12c0.44-0.22,0.94-0.33,1.51-0.33c1.24,0,1.87,0.56,1.87,1.66v1.67
		c0,0.37-0.23,0.71-0.58,0.84C40.25,10.12,39.79,10.19,39.29,10.19z M39.31,9.5c0.41,0,0.76-0.08,1.05-0.23V8.33
		c-0.28-0.14-0.64-0.2-1.05-0.2c-0.36,0-0.62,0.05-0.77,0.16c-0.15,0.11-0.22,0.28-0.22,0.52c0,0.24,0.08,0.42,0.23,0.53
		C38.72,9.44,38.97,9.5,39.31,9.5z"/>
	<path class="st3" d="M46.2,10.1h-0.88V7.58c0-0.41-0.07-0.7-0.21-0.88c-0.14-0.18-0.4-0.26-0.77-0.26c-0.37,0-0.71,0.12-1.01,0.36
		v3.29h-0.88V4.06h0.88v2.01c0.37-0.24,0.78-0.36,1.24-0.36c0.58,0,1,0.14,1.25,0.43c0.25,0.29,0.38,0.74,0.38,1.36V10.1z"/>
	<path class="st3" d="M47.19,8.19V7.8c0-0.64,0.17-1.13,0.52-1.48c0.35-0.35,0.86-0.52,1.53-0.52c0.67,0,1.18,0.17,1.53,0.52
		c0.35,0.35,0.52,0.84,0.52,1.48v0.39c0,0.64-0.17,1.13-0.52,1.48c-0.35,0.35-0.86,0.52-1.53,0.52c-0.67,0-1.18-0.17-1.53-0.52
		C47.36,9.32,47.19,8.83,47.19,8.19z M50.41,8.2V7.79c0-0.43-0.1-0.76-0.31-0.97c-0.21-0.21-0.5-0.32-0.87-0.32
		c-0.37,0-0.65,0.11-0.86,0.32c-0.21,0.21-0.31,0.53-0.31,0.96V8.2c0,0.43,0.1,0.76,0.31,0.97c0.21,0.21,0.5,0.32,0.87,0.32
		c0.37,0,0.65-0.11,0.86-0.32C50.31,8.94,50.41,8.62,50.41,8.2z"/>
	<path class="st3" d="M53.29,7.42l1.03,0.4c0.35,0.14,0.59,0.3,0.72,0.46c0.13,0.17,0.19,0.4,0.19,0.68c0,0.39-0.14,0.69-0.42,0.91
		c-0.28,0.21-0.66,0.32-1.16,0.32c-0.59,0-1.08-0.11-1.49-0.33v-0.8c0.45,0.28,0.93,0.42,1.46,0.42c0.26,0,0.46-0.04,0.61-0.13
		c0.15-0.09,0.22-0.22,0.22-0.39c0-0.11-0.03-0.21-0.09-0.28c-0.06-0.08-0.17-0.15-0.34-0.21L53,8.06
		c-0.35-0.14-0.59-0.29-0.72-0.45c-0.13-0.16-0.19-0.38-0.19-0.66c0-0.38,0.14-0.67,0.41-0.86c0.27-0.19,0.65-0.29,1.12-0.29
		c0.54,0,0.98,0.08,1.34,0.24v0.8c-0.38-0.22-0.82-0.32-1.3-0.32c-0.53,0-0.79,0.15-0.79,0.45c0,0.1,0.03,0.19,0.09,0.26
		C53.01,7.29,53.12,7.36,53.29,7.42z"/>
	<path class="st3" d="M60.63,7.42l1.03,0.4c0.35,0.14,0.59,0.3,0.72,0.46c0.13,0.17,0.19,0.4,0.19,0.68c0,0.39-0.14,0.69-0.42,0.91
		c-0.28,0.21-0.66,0.32-1.16,0.32c-0.59,0-1.08-0.11-1.49-0.33v-0.8c0.45,0.28,0.93,0.42,1.46,0.42c0.26,0,0.46-0.04,0.61-0.13
		c0.15-0.09,0.22-0.22,0.22-0.39c0-0.11-0.03-0.21-0.09-0.28c-0.06-0.08-0.17-0.15-0.34-0.21l-1.03-0.41
		c-0.35-0.14-0.59-0.29-0.72-0.45c-0.13-0.16-0.19-0.38-0.19-0.66c0-0.38,0.14-0.67,0.41-0.86c0.27-0.19,0.65-0.29,1.12-0.29
		c0.54,0,0.98,0.08,1.34,0.24v0.8c-0.38-0.22-0.82-0.32-1.3-0.32c-0.53,0-0.79,0.15-0.79,0.45c0,0.1,0.03,0.19,0.09,0.26
		C60.35,7.29,60.47,7.36,60.63,7.42z"/>
	<path class="st3" d="M55.91,5.89h0.71V4.64h0.8v1.25h1.17V6.6h-1.17v2.27c0,0.22,0.04,0.37,0.11,0.46c0.07,0.09,0.2,0.14,0.38,0.14
		c0.24,0,0.47-0.04,0.68-0.13v0.69c-0.23,0.1-0.51,0.15-0.84,0.15c-0.76,0-1.13-0.43-1.13-1.29V6.6h-0.71V5.89z"/>
	<path class="st2" d="M28.64,5.85c-0.19-0.04-0.39-0.06-0.6-0.06c-0.63,0-1.24,0.18-1.83,0.53v3.78h0.84V6.73
		c0.27-0.15,0.57-0.22,0.89-0.22c0.24,0,0.47,0.04,0.7,0.1V5.85z"/>
	<path class="st2" d="M36.71,5.85c-0.19-0.04-0.39-0.06-0.6-0.06c-0.63,0-1.24,0.18-1.83,0.53v3.78h0.84V6.73
		c0.27-0.15,0.57-0.22,0.89-0.22c0.24,0,0.47,0.04,0.7,0.1V5.85z"/>
	<path class="st2" d="M18.33,4.42h-1L15.1,10.1h0.93l0.59-1.56h2.31l0.57,1.56h0.98L18.33,4.42z M16.88,7.8l0.88-2.44l0.88,2.44
		H16.88z"/>
</g>
</svg>
