<?xml version="1.0" encoding="utf-8"?>
<!-- Generator: Adobe Illustrator 28.0.0, SVG Export Plug-In . SVG Version: 6.00 Build 0)  -->
<svg version="1.1" xmlns="http://www.w3.org/2000/svg" xmlns:xlink="http://www.w3.org/1999/xlink" x="0px" y="0px"
	 viewBox="0 0 680 167.2" style="enable-background:new 0 0 680 167.2;" xml:space="preserve">
<style type="text/css">
	.st0{fill:url(#SVGID_1_);}
	.st1{fill:url(#SVGID_00000099621589786543424890000000516982513492606134_);}
	.st2{fill:url(#SVGID_00000116938033404923064450000001512894787279329180_);}
	.st3{fill:url(#SVGID_00000025408933238255611650000009887689199924250285_);}
	.st4{fill:url(#SVGID_00000068679304645665769040000002390678850069811598_);}
	.st5{fill:url(#SVGID_00000113347989498915105030000011352752241218331028_);}
	.st6{fill:url(#SVGID_00000085242860206911989190000016224028344457771441_);}
	.st7{fill:#8619F5;}
	.st8{fill:url(#SVGID_00000153689117430528016850000007205971421483039122_);}
	.st9{fill:url(#SVGID_00000046337438741735392220000005267190692184718503_);}
	.st10{fill:url(#SVGID_00000014612622441219919790000000079647077685900715_);}
	.st11{fill:url(#SVGID_00000035492986162956250560000012832248628612457121_);}
	.st12{fill:url(#SVGID_00000174582910943602646340000008623812492764284329_);}
	.st13{fill:url(#SVGID_00000114044281509036398090000001479707196524255376_);}
	.st14{fill:url(#SVGID_00000068654703498856207760000012800778436088529071_);}
	.st15{fill:url(#SVGID_00000013889377765704976890000007341566130285801127_);}
	.st16{fill:url(#SVGID_00000052069580584963705710000006183949709426423457_);}
	.st17{fill:url(#SVGID_00000152946265112711430380000013126636115379969166_);}
	.st18{fill:url(#SVGID_00000172423447651755760620000017906831949884393649_);}
	.st19{fill:url(#SVGID_00000041269145686133421100000010436542965603366530_);}
	.st20{fill:url(#SVGID_00000111910644755642686160000000858555736012026042_);}
	.st21{fill:url(#SVGID_00000028294930497303538860000012102131132184796820_);}
	.st22{fill:url(#SVGID_00000112613329466351281400000006052958370974294181_);}
	.st23{fill:url(#SVGID_00000059276453331170764930000001607667476655521453_);}
	.st24{fill:url(#SVGID_00000021827744522932635650000012145983735005963422_);}
	.st25{fill:url(#SVGID_00000046305271499063655900000010344225170463523970_);}
	.st26{fill:url(#SVGID_00000170259036618374398300000018131215217086773641_);}
	.st27{fill:url(#SVGID_00000123430556709028417110000012668375523810310050_);}
	.st28{fill:url(#SVGID_00000173131421545382325390000014800033496065236910_);}
	.st29{fill:url(#SVGID_00000180342893209503088120000006105588410062028708_);}
	.st30{fill:url(#SVGID_00000035528230894001810690000016039379445212304791_);}
	.st31{fill:url(#SVGID_00000031195205679698883370000018407267635428795035_);}
	.st32{fill:url(#SVGID_00000019674387072453599320000008304532911934828466_);}
	.st33{fill:url(#SVGID_00000014605596162531694920000003195422357907161766_);}
	.st34{fill:url(#SVGID_00000069362493419973253990000017780892350188049083_);}
	.st35{fill:url(#SVGID_00000083083137226160773160000005869829913767214753_);}
	.st36{fill:url(#SVGID_00000129202867285288911930000002700560984124355475_);}
	.st37{fill:url(#SVGID_00000115478328634261165450000015391201883110043324_);}
	.st38{fill:url(#SVGID_00000000942815117021043740000006383877315028951212_);}
	.st39{fill:url(#SVGID_00000127043114984993782170000000853827109225877438_);}
	.st40{fill:url(#SVGID_00000067232218783844134320000011353602474292245122_);}
	.st41{fill:url(#SVGID_00000058556761429382507310000018264329837147930520_);}
	.st42{fill:url(#SVGID_00000039851958564723779420000002637480209136306842_);}
	.st43{fill:#FFFFFF;}
	.st44{fill:url(#SVGID_00000019651399801425111590000004581424306163442350_);}
	.st45{fill:url(#SVGID_00000005968278799804426790000008353160344025791395_);}
	.st46{fill:url(#SVGID_00000112606625944975865830000009146754164199592837_);}
	.st47{fill:url(#SVGID_00000000938435679158761640000005624927140935744640_);}
	.st48{fill:url(#SVGID_00000021842296409514747180000006227056292471847588_);}
	.st49{fill:url(#SVGID_00000070082766077528265520000009732512077536265878_);}
	.st50{fill:url(#SVGID_00000031202221974650478760000012985984888116933249_);}
	.st51{fill:url(#SVGID_00000015346978163911025810000014315202462034895805_);}
	.st52{fill:url(#SVGID_00000166671308659488351370000006233004702974622860_);}
	.st53{fill:url(#SVGID_00000094588734239575375270000009405850184849847992_);}
	.st54{fill:url(#SVGID_00000034788387053144200960000008606486779741833659_);}
	.st55{fill:url(#SVGID_00000018195158890127623650000009271158997709802156_);}
	.st56{fill:url(#SVGID_00000147201485526251427820000010846546967537425044_);}
	.st57{fill:url(#SVGID_00000011013170496582379570000015824748601321666200_);}
	.st58{fill:url(#SVGID_00000168836307585966815870000006159707494362030498_);}
	.st59{fill:url(#SVGID_00000140726482675365842520000016910100325971958960_);}
	.st60{fill:url(#SVGID_00000101105205875230429090000017455999274215815554_);}
	.st61{fill:url(#SVGID_00000050650202109076718550000000811149866250539192_);}
	.st62{fill:url(#SVGID_00000104670863134519891110000009333322441160318878_);}
	.st63{fill:url(#SVGID_00000070831256692048776440000007631287174887435678_);}
	.st64{fill:url(#SVGID_00000098214562446530799490000016938176917788786620_);}
	.st65{fill:url(#SVGID_00000066501392215783185640000005066097192696065934_);}
	.st66{fill:url(#SVGID_00000137128284250817315180000009438406055972236980_);}
	.st67{fill:url(#SVGID_00000138532555244389468200000010227484404135015101_);}
	.st68{fill:url(#SVGID_00000161602660941981342530000006454465099216134847_);}
	.st69{fill:url(#SVGID_00000031176090159388562520000001385957876349856701_);}
	.st70{fill:url(#SVGID_00000080194479191315641580000003843760805540991904_);}
	.st71{fill:url(#SVGID_00000130621802356768144100000006992984181476385156_);}
	.st72{fill:url(#SVGID_00000133508168369000030590000006038998169544717750_);}
	.st73{fill:url(#SVGID_00000011753263312889610480000002920040574948615097_);}
	.st74{fill:url(#SVGID_00000081613330283126467680000017900216293131180425_);}
	.st75{fill:url(#SVGID_00000094599540968418598110000008891114271483580324_);}
	.st76{fill:url(#SVGID_00000129924367423465360390000018356879509458825866_);}
	.st77{fill:url(#SVGID_00000148640038572110410830000012224350235483024318_);}
	.st78{fill:url(#SVGID_00000092438091192675327690000004220205413022360246_);}
	.st79{fill:url(#SVGID_00000109713510927042966640000004639036619126197167_);}
	.st80{fill:url(#SVGID_00000123415544044040938030000011417378704510275772_);}
	.st81{fill:url(#SVGID_00000107552136336994524530000008097124796536935357_);}
	.st82{fill:url(#SVGID_00000109741339080767833830000002183770034791809714_);}
	.st83{fill:url(#SVGID_00000079448088712752780250000008733246636572610709_);}
	.st84{fill:url(#SVGID_00000106835444595767980110000003404655623292763033_);}
	.st85{fill:url(#SVGID_00000150824782102770754060000000015482089103277193_);}
	.st86{fill:url(#SVGID_00000128480992141699897170000006406713422090161074_);}
	.st87{fill:url(#SVGID_00000078744581313573654670000001884400510200075916_);}
	.st88{fill:url(#SVGID_00000182519361229580317080000009796736302591908502_);}
	.st89{fill:url(#SVGID_00000032632927260675012800000001228559118623510681_);}
	.st90{fill:url(#SVGID_00000129183581042318332830000006396100589882248323_);}
	.st91{fill:url(#SVGID_00000163770446591623675970000005974441111973107090_);}
	.st92{fill:url(#SVGID_00000001661198677765465290000002468571869233303222_);}
	.st93{fill:url(#SVGID_00000157267568764693704930000012167038972173237911_);}
</style>
<g id="Info">
</g>
<g id="Logo-02">
</g>
<g id="Logo-01">
</g>
<g id="HQ">
	
		<linearGradient id="SVGID_1_" gradientUnits="userSpaceOnUse" x1="-2457.53" y1="-50.4279" x2="-2457.53" y2="107.2414" gradientTransform="matrix(-1 0 0 -1 -2117.53 167.1745)">
		<stop  offset="0" style="stop-color:#7A15E0"/>
		<stop  offset="1" style="stop-color:#21036A"/>
	</linearGradient>
	<polygon class="st0" points="-5.3,-12.3 685.3,-12.3 685.3,179.5 -5.3,179.5 	"/>
	<g>
		<g>
			<path class="st43" d="M229.4,111.4c0,1.1-0.5,2.1-1.4,2.9c-0.9,0.8-1.9,1.2-3.1,1.2c-0.8,0-1.5-0.2-2.2-0.7
				c-0.7-0.4-1.2-1.1-1.6-1.9l-5.9-13.4h-32.6l-5.9,13.4c-0.4,0.8-0.9,1.5-1.6,1.9c-0.7,0.4-1.5,0.7-2.2,0.7c-1.2,0-2.2-0.4-3.2-1.2
				c-0.9-0.8-1.4-1.7-1.4-2.9c0-0.5,0.1-1.1,0.4-1.8l25.1-55c0.4-0.9,1.1-1.7,2-2.2c0.9-0.5,1.9-0.8,2.9-0.8c1,0,2,0.3,2.9,0.8
				c0.9,0.5,1.6,1.3,2,2.2l25.1,55C229.2,110.3,229.4,110.9,229.4,111.4z M186,92.1h26.1L199,62.7L186,92.1z"/>
			<path class="st43" d="M274.7,71.7c0.8,0.8,1.2,1.8,1.2,3.2v36.3c0,1.2-0.4,2.3-1.2,3c-0.8,0.8-1.9,1.2-3.3,1.2
				c-1.2,0-2.3-0.4-3-1.1c-0.8-0.7-1.2-1.7-1.2-3v-3.4c-1.4,2.5-3.3,4.4-5.7,5.7c-2.4,1.3-5.1,2-8.1,2c-10.6,0-15.9-5.8-15.9-17.5
				V74.9c0-1.4,0.4-2.4,1.2-3.2c0.8-0.8,1.9-1.2,3.3-1.2c1.4,0,2.4,0.4,3.3,1.2c0.8,0.8,1.2,1.8,1.2,3.2V98c0,3.5,0.7,6.1,2.1,7.7
				c1.4,1.7,3.6,2.5,6.6,2.5c3.5,0,6.3-1.1,8.4-3.4c2.1-2.3,3.2-5.3,3.2-9V74.9c0-1.3,0.4-2.4,1.2-3.2c0.8-0.8,1.9-1.2,3.3-1.2
				S273.9,71,274.7,71.7z"/>
			<path class="st43" d="M315.6,74.2c0,1.3-0.3,2.3-1,2.9c-0.7,0.7-1.8,1-3.4,1.2l-2.7,0.3c-3.7,0.4-6.5,1.7-8.3,3.9
				c-1.8,2.3-2.7,5-2.7,8.2v20.4c0,1.4-0.4,2.5-1.2,3.2c-0.8,0.7-1.9,1.1-3.2,1.1c-1.3,0-2.4-0.4-3.3-1.1c-0.9-0.7-1.3-1.8-1.3-3.2
				V74.9c0-1.4,0.4-2.4,1.3-3.2c0.9-0.7,1.9-1.1,3.3-1.1c1.2,0,2.2,0.4,3,1.1c0.8,0.7,1.2,1.8,1.2,3.1V79c1.2-2.6,2.9-4.6,5.2-6
				c2.3-1.4,4.8-2.2,7.7-2.4l1.2-0.1C314.2,70.4,315.6,71.6,315.6,74.2z"/>
			<path class="st43" d="M327.8,112.8c-3.2-1.8-5.7-4.5-7.5-7.9c-1.8-3.4-2.6-7.4-2.6-11.9c0-4.6,0.9-8.6,2.6-12s4.2-6,7.5-7.9
				c3.2-1.8,7-2.8,11.3-2.8c4.3,0,8,0.9,11.3,2.8c3.2,1.8,5.7,4.5,7.5,7.9c1.8,3.4,2.6,7.4,2.6,12c0,4.5-0.9,8.5-2.6,11.9
				c-1.8,3.4-4.2,6-7.5,7.9c-3.2,1.8-7,2.8-11.3,2.8C334.8,115.6,331.1,114.7,327.8,112.8z M348.2,104.5c2.1-2.6,3.2-6.4,3.2-11.5
				c0-5-1.1-8.8-3.2-11.4c-2.1-2.6-5.2-4-9.1-4c-3.9,0-6.9,1.3-9.1,4c-2.1,2.6-3.2,6.5-3.2,11.4c0,5,1.1,8.9,3.2,11.5
				c2.1,2.6,5.2,3.9,9.1,3.9C343.1,108.4,346.1,107.1,348.2,104.5z"/>
			<path class="st43" d="M397.5,74.2c0,1.3-0.3,2.3-1,2.9c-0.7,0.7-1.8,1-3.4,1.2l-2.7,0.3c-3.7,0.4-6.5,1.7-8.3,3.9
				c-1.8,2.3-2.7,5-2.7,8.2v20.4c0,1.4-0.4,2.5-1.2,3.2c-0.8,0.7-1.9,1.1-3.2,1.1c-1.3,0-2.4-0.4-3.3-1.1c-0.9-0.7-1.3-1.8-1.3-3.2
				V74.9c0-1.4,0.4-2.4,1.3-3.2c0.9-0.7,1.9-1.1,3.3-1.1c1.2,0,2.2,0.4,3,1.1c0.8,0.7,1.2,1.8,1.2,3.1V79c1.2-2.6,2.9-4.6,5.2-6
				c2.3-1.4,4.8-2.2,7.7-2.4l1.2-0.1C396.1,70.4,397.5,71.6,397.5,74.2z"/>
			<path class="st43" d="M433.9,74.8c2.8,2.9,4.2,7.3,4.2,13.3v23.1c0,1.4-0.4,2.4-1.2,3.2c-0.8,0.7-1.8,1.1-3.2,1.1
				c-1.3,0-2.3-0.4-3.1-1.2c-0.8-0.8-1.2-1.8-1.2-3.1v-3.3c-1.1,2.5-2.8,4.4-5,5.7c-2.2,1.3-4.8,2-7.8,2c-2.8,0-5.5-0.6-7.8-1.7
				c-2.4-1.2-4.2-2.8-5.6-4.9c-1.3-2.1-2-4.4-2-6.9c0-3.1,0.8-5.6,2.5-7.4c1.6-1.8,4.3-3.1,8.1-3.9c3.8-0.8,9-1.2,15.5-1.2h2V87
				c0-3.3-0.7-5.7-2-7.2s-3.6-2.2-6.6-2.2c-2.1,0-4,0.3-5.9,0.8c-1.8,0.5-3.9,1.3-6.1,2.3c-1.6,0.9-2.7,1.3-3.4,1.3
				c-0.9,0-1.6-0.3-2.2-1c-0.6-0.7-0.8-1.5-0.8-2.5c0-0.9,0.3-1.7,0.8-2.4c0.5-0.7,1.3-1.4,2.4-2c2.1-1.1,4.5-2,7.3-2.7
				c2.8-0.7,5.5-1,8.1-1C426.8,70.4,431.1,71.9,433.9,74.8z M426.3,105.5c2.1-2.2,3.1-5.1,3.1-8.6v-2.3h-1.6
				c-4.6,0-8.2,0.2-10.7,0.6c-2.5,0.4-4.3,1.1-5.3,2.1c-1.1,1-1.6,2.4-1.6,4.2c0,2.1,0.8,3.9,2.3,5.3c1.5,1.4,3.5,2,5.8,2
				C421.6,108.9,424.2,107.8,426.3,105.5z"/>
			
				<linearGradient id="SVGID_00000165205676771872491670000005659857023325490572_" gradientUnits="userSpaceOnUse" x1="469.9755" y1="57.0511" x2="469.9755" y2="126.2665">
				<stop  offset="0" style="stop-color:#5BAADB"/>
				<stop  offset="0.1283" style="stop-color:#5EA1DD"/>
				<stop  offset="0.3361" style="stop-color:#6589E1"/>
				<stop  offset="0.5974" style="stop-color:#7062E8"/>
				<stop  offset="0.8993" style="stop-color:#802DF1"/>
				<stop  offset="1" style="stop-color:#8619F5"/>
			</linearGradient>
			<path style="fill:url(#SVGID_00000165205676771872491670000005659857023325490572_);" d="M489.5,88v23.2c0,1.3-0.4,2.3-1.2,3.1
				c-0.8,0.8-1.9,1.2-3.3,1.2s-2.4-0.4-3.3-1.2c-0.8-0.8-1.2-1.8-1.2-3.1V88c0-3.6-0.7-6.2-2.2-7.8c-1.5-1.7-3.7-2.5-6.8-2.5
				c-3.6,0-6.5,1.1-8.7,3.4c-2.2,2.3-3.3,5.3-3.3,9.1v20.9c0,1.3-0.4,2.3-1.2,3.1c-0.8,0.8-1.9,1.2-3.3,1.2c-1.4,0-2.5-0.4-3.3-1.2
				c-0.8-0.8-1.2-1.8-1.2-3.1V56c0-1.3,0.4-2.3,1.3-3.1c0.9-0.8,2-1.2,3.3-1.2c1.3,0,2.4,0.4,3.2,1.1c0.8,0.7,1.2,1.7,1.2,3v22.3
				c1.5-2.5,3.5-4.4,6-5.7c2.5-1.3,5.3-2,8.6-2C484.3,70.4,489.5,76.3,489.5,88z"/>
			
				<linearGradient id="SVGID_00000122709089133580729270000014583242335608556974_" gradientUnits="userSpaceOnUse" x1="520.6657" y1="57.0511" x2="520.6657" y2="126.2665">
				<stop  offset="0" style="stop-color:#5BAADB"/>
				<stop  offset="0.1283" style="stop-color:#5EA1DD"/>
				<stop  offset="0.3361" style="stop-color:#6589E1"/>
				<stop  offset="0.5974" style="stop-color:#7062E8"/>
				<stop  offset="0.8993" style="stop-color:#802DF1"/>
				<stop  offset="1" style="stop-color:#8619F5"/>
			</linearGradient>
			<path style="fill:url(#SVGID_00000122709089133580729270000014583242335608556974_);" d="M509.4,112.8c-3.2-1.8-5.7-4.5-7.5-7.9
				c-1.8-3.4-2.6-7.4-2.6-11.9c0-4.6,0.9-8.6,2.6-12s4.2-6,7.5-7.9c3.2-1.8,7-2.8,11.3-2.8c4.3,0,8,0.9,11.3,2.8
				c3.2,1.8,5.7,4.5,7.5,7.9c1.8,3.4,2.6,7.4,2.6,12c0,4.5-0.9,8.5-2.6,11.9c-1.8,3.4-4.2,6-7.5,7.9c-3.2,1.8-7,2.8-11.3,2.8
				C516.4,115.6,512.6,114.7,509.4,112.8z M529.8,104.5c2.1-2.6,3.2-6.4,3.2-11.5c0-5-1.1-8.8-3.2-11.4c-2.1-2.6-5.2-4-9.1-4
				c-3.9,0-6.9,1.3-9.1,4c-2.1,2.6-3.2,6.5-3.2,11.4c0,5,1.1,8.9,3.2,11.5c2.1,2.6,5.2,3.9,9.1,3.9
				C524.6,108.4,527.7,107.1,529.8,104.5z"/>
			
				<linearGradient id="SVGID_00000177459303418769425420000013520263464648369058_" gradientUnits="userSpaceOnUse" x1="567.1693" y1="57.0511" x2="567.1693" y2="126.2665">
				<stop  offset="0" style="stop-color:#5BAADB"/>
				<stop  offset="0.1283" style="stop-color:#5EA1DD"/>
				<stop  offset="0.3361" style="stop-color:#6589E1"/>
				<stop  offset="0.5974" style="stop-color:#7062E8"/>
				<stop  offset="0.8993" style="stop-color:#802DF1"/>
				<stop  offset="1" style="stop-color:#8619F5"/>
			</linearGradient>
			<path style="fill:url(#SVGID_00000177459303418769425420000013520263464648369058_);" d="M552.3,111.8c-1.1-0.7-1.8-1.3-2.3-2
				c-0.4-0.7-0.7-1.5-0.7-2.4c0-0.9,0.3-1.8,0.8-2.4c0.5-0.7,1.2-1,2-1c0.8,0,2,0.5,3.7,1.4c1.8,1,3.5,1.7,5.2,2.3
				c1.7,0.6,3.8,0.9,6.4,0.9c2.8,0,5.1-0.5,6.7-1.5c1.6-1,2.4-2.4,2.4-4.3c0-1.2-0.3-2.1-0.9-2.9c-0.6-0.7-1.7-1.3-3.3-1.9
				c-1.5-0.6-3.8-1.2-6.9-1.8c-5.2-1.1-9-2.7-11.3-4.6c-2.3-1.9-3.4-4.6-3.4-7.9c0-2.6,0.7-4.9,2.2-6.9c1.5-2,3.5-3.6,6.1-4.8
				c2.6-1.1,5.6-1.7,8.9-1.7c2.4,0,4.7,0.3,6.9,0.9c2.3,0.6,4.2,1.5,6,2.7c2,1.3,2.9,2.8,2.9,4.5c0,0.9-0.3,1.8-0.8,2.4
				c-0.6,0.7-1.2,1-2,1c-0.5,0-1.1-0.1-1.6-0.4c-0.5-0.2-1.2-0.6-2.1-1.2c-1.6-0.9-3.1-1.7-4.5-2.2c-1.4-0.5-3.1-0.8-5.2-0.8
				c-2.5,0-4.5,0.5-6,1.6c-1.5,1.1-2.3,2.5-2.3,4.4c0,1.7,0.7,3,2.1,3.9c1.4,0.9,4,1.8,7.9,2.6c4,0.8,7.1,1.8,9.4,2.9
				c2.3,1.1,3.9,2.4,4.9,4c1,1.6,1.5,3.6,1.5,6c0,3.9-1.6,7-4.9,9.3c-3.2,2.3-7.6,3.5-13,3.5C561.1,115.6,556.2,114.3,552.3,111.8z"
				/>
			
				<linearGradient id="SVGID_00000113340351880739110280000014177707471115015615_" gradientUnits="userSpaceOnUse" x1="603.7393" y1="57.0511" x2="603.7393" y2="126.2665">
				<stop  offset="0" style="stop-color:#5BAADB"/>
				<stop  offset="0.1283" style="stop-color:#5EA1DD"/>
				<stop  offset="0.3361" style="stop-color:#6589E1"/>
				<stop  offset="0.5974" style="stop-color:#7062E8"/>
				<stop  offset="0.8993" style="stop-color:#802DF1"/>
				<stop  offset="1" style="stop-color:#8619F5"/>
			</linearGradient>
			<path style="fill:url(#SVGID_00000113340351880739110280000014177707471115015615_);" d="M618.6,109.6c0.6,0.6,0.8,1.4,0.8,2.4
				c0,1.2-0.5,2.1-1.4,2.7c-0.9,0.6-2.3,0.9-4.1,0.8l-2.4-0.2c-4.8-0.4-8.4-1.8-10.8-4.4c-2.4-2.6-3.6-6.4-3.6-11.4V78.4h-5.3
				c-2.6,0-3.9-1.2-3.9-3.5c0-1.1,0.3-1.9,1-2.5c0.7-0.6,1.6-0.9,2.9-0.9h5.3v-9.2c0-1.4,0.4-2.4,1.2-3.2c0.8-0.8,1.9-1.2,3.3-1.2
				s2.5,0.4,3.3,1.2c0.8,0.8,1.2,1.8,1.2,3.2v9.2h8.8c1.2,0,2.2,0.3,2.9,0.9c0.7,0.6,1,1.5,1,2.5c0,1.1-0.3,2-1,2.6
				c-0.7,0.6-1.6,0.9-2.9,0.9h-8.8V100c0,2.8,0.6,4.8,1.7,6.1c1.2,1.3,2.9,2,5.3,2.2l2.5,0.2C617.1,108.7,618.1,109,618.6,109.6z"/>
			
				<linearGradient id="SVGID_00000072272687512160719750000008705442927407480719_" gradientUnits="userSpaceOnUse" x1="641.1113" y1="57.0511" x2="641.1113" y2="126.2665">
				<stop  offset="0" style="stop-color:#5BAADB"/>
				<stop  offset="0.1283" style="stop-color:#5EA1DD"/>
				<stop  offset="0.3361" style="stop-color:#6589E1"/>
				<stop  offset="0.5974" style="stop-color:#7062E8"/>
				<stop  offset="0.8993" style="stop-color:#802DF1"/>
				<stop  offset="1" style="stop-color:#8619F5"/>
			</linearGradient>
			<path style="fill:url(#SVGID_00000072272687512160719750000008705442927407480719_);" d="M626.2,111.8c-1.1-0.7-1.8-1.3-2.3-2
				c-0.4-0.7-0.7-1.5-0.7-2.4c0-0.9,0.3-1.8,0.8-2.4c0.5-0.7,1.2-1,2-1c0.8,0,2,0.5,3.7,1.4c1.8,1,3.5,1.7,5.2,2.3
				c1.7,0.6,3.8,0.9,6.4,0.9c2.8,0,5.1-0.5,6.7-1.5c1.6-1,2.4-2.4,2.4-4.3c0-1.2-0.3-2.1-0.9-2.9c-0.6-0.7-1.7-1.3-3.3-1.9
				c-1.5-0.6-3.8-1.2-6.9-1.8c-5.2-1.1-9-2.7-11.3-4.6c-2.3-1.9-3.4-4.6-3.4-7.9c0-2.6,0.7-4.9,2.2-6.9c1.5-2,3.5-3.6,6.1-4.8
				c2.6-1.1,5.6-1.7,8.9-1.7c2.4,0,4.7,0.3,6.9,0.9c2.3,0.6,4.2,1.5,6,2.7c2,1.3,2.9,2.8,2.9,4.5c0,0.9-0.3,1.8-0.8,2.4
				c-0.6,0.7-1.2,1-2,1c-0.5,0-1.1-0.1-1.6-0.4c-0.5-0.2-1.2-0.6-2.1-1.2c-1.6-0.9-3.1-1.7-4.5-2.2c-1.4-0.5-3.1-0.8-5.2-0.8
				c-2.5,0-4.5,0.5-6,1.6c-1.5,1.1-2.3,2.5-2.3,4.4c0,1.7,0.7,3,2.1,3.9c1.4,0.9,4,1.8,7.9,2.6c4,0.8,7.1,1.8,9.4,2.9
				c2.3,1.1,3.9,2.4,4.9,4c1,1.6,1.5,3.6,1.5,6c0,3.9-1.6,7-4.9,9.3c-3.2,2.3-7.6,3.5-13,3.5C635.1,115.6,630.1,114.3,626.2,111.8z"
				/>
		</g>
		<g>
			<path class="st7" d="M62.1,120.7h42.1L84.9,95.5c-0.9-1.1-2.6-1.1-3.4,0L62.1,120.7z"/>
			
				<linearGradient id="SVGID_00000009568649531413295930000007760464634614715825_" gradientUnits="userSpaceOnUse" x1="41.0911" y1="54.7552" x2="65.138" y2="82.6846">
				<stop  offset="0" style="stop-color:#5BAADB"/>
				<stop  offset="0.1283" style="stop-color:#5EA1DD"/>
				<stop  offset="0.3361" style="stop-color:#6589E1"/>
				<stop  offset="0.5974" style="stop-color:#7062E8"/>
				<stop  offset="0.8993" style="stop-color:#802DF1"/>
				<stop  offset="1" style="stop-color:#8619F5"/>
			</linearGradient>
			<path style="fill:url(#SVGID_00000009568649531413295930000007760464634614715825_);" d="M93.9,58.9c-6.1,2.9-26.3-2.4-37.2,7.5
				C45.6,76.5,47.2,99,34,104.3c-13.9,5.5-11.7-8.8-11.7-9.6v0c1.9-5.7,6-10.4,11.2-13.2c-1.4-3.1-2.1-6.7-1.6-10.4
				c1.1-8.2,7.7-14.9,15.9-16.1c4.4-0.6,8.5,0.3,12,2.2c7.1-6.6,16.5-10.6,26.9-10.6c1.5,0,3,0.1,4.4,0.3c0,0,0,0,0,0
				C91.7,46.9,105,53.6,93.9,58.9z"/>
			
				<linearGradient id="SVGID_00000127019325295894790580000016019597111650234033_" gradientUnits="userSpaceOnUse" x1="55.9412" y1="66.9038" x2="81.9608" y2="101.6909">
				<stop  offset="0" style="stop-color:#5BAADB"/>
				<stop  offset="0.1283" style="stop-color:#5EA1DD"/>
				<stop  offset="0.3361" style="stop-color:#6589E1"/>
				<stop  offset="0.5974" style="stop-color:#7062E8"/>
				<stop  offset="0.8993" style="stop-color:#802DF1"/>
				<stop  offset="1" style="stop-color:#8619F5"/>
			</linearGradient>
			<path style="fill:url(#SVGID_00000127019325295894790580000016019597111650234033_);" d="M116.1,76c-6.3,3.1-12.2-3.6-19.4-4.1
				c-7.9-0.5-15.1,5.8-19.5,10.9c-2.6,3-4.3,5.5-4.5,5.8c0,0,0,0,0,0.1l-18.8,24.5c-10.5,13.6-32.5,6.6-32.8-10.6v-0.4
				c0-2.7,0.4-5.2,1.3-7.6c0,0.9-2.2,15.2,11.7,9.6C47.2,99,45.6,76.5,56.7,66.4c10.9-9.9,31.1-4.6,37.2-7.5
				c11.1-5.3-2.2-12.1-2.8-12.2c11.6,1.3,21.7,7.6,28,16.7c0.1,0.3,0.1,0.6,0.2,0.9C120.3,69,120.4,73.9,116.1,76z"/>
			
				<linearGradient id="SVGID_00000055679094816522758300000012466922768041181573_" gradientUnits="userSpaceOnUse" x1="74.3778" y1="84.9049" x2="75.5573" y2="86.4818">
				<stop  offset="0" style="stop-color:#7AE186"/>
				<stop  offset="1" style="stop-color:#8619F5"/>
			</linearGradient>
			<path style="fill:url(#SVGID_00000055679094816522758300000012466922768041181573_);" d="M77.2,82.8l-4.5,5.8
				C72.9,88.2,74.6,85.7,77.2,82.8z"/>
			
				<linearGradient id="SVGID_00000016786728857999174250000002666432707706403243_" gradientUnits="userSpaceOnUse" x1="92.852" y1="69.802" x2="131.8515" y2="121.9428">
				<stop  offset="0" style="stop-color:#5BAADB"/>
				<stop  offset="0.1283" style="stop-color:#5EA1DD"/>
				<stop  offset="0.3361" style="stop-color:#6589E1"/>
				<stop  offset="0.5974" style="stop-color:#7062E8"/>
				<stop  offset="0.8993" style="stop-color:#802DF1"/>
				<stop  offset="1" style="stop-color:#8619F5"/>
			</linearGradient>
			<path style="fill:url(#SVGID_00000016786728857999174250000002666432707706403243_);" d="M145.5,102.2c0,1.1-0.1,2.1-0.2,3.2
				c-2.1,15.8-22.8,20.7-32.5,8.1L93.6,88.6c-5.3-6.7-15.5-6.7-20.9,0c0.2-0.4,1.9-2.9,4.5-5.8c4.4-5,11.6-11.4,19.5-10.9
				c7.2,0.5,13.1,7.2,19.4,4.1c4.3-2.1,4.3-7.1,3.3-11.7c-0.1-0.3-0.1-0.6-0.2-0.9c3.2,4.6,5.5,9.9,6.5,15.6
				C136.9,80.8,145.5,90.5,145.5,102.2z"/>
		</g>
	</g>
</g>
</svg>
